<?xml version="1.0" encoding="UTF-8" standalone="no"?>
<!-- Created with Inkscape (http://www.inkscape.org/) -->

<svg
   xmlns:dc="http://purl.org/dc/elements/1.1/"
   xmlns:cc="http://creativecommons.org/ns#"
   xmlns:rdf="http://www.w3.org/1999/02/22-rdf-syntax-ns#"
   xmlns:svg="http://www.w3.org/2000/svg"
   xmlns="http://www.w3.org/2000/svg"
   xmlns:sodipodi="http://sodipodi.sourceforge.net/DTD/sodipodi-0.dtd"
   xmlns:inkscape="http://www.inkscape.org/namespaces/inkscape"
   width="499.40402"
   height="276.36401"
   id="svg2"
   version="1.1"
   inkscape:version="0.48.3.1 r9886"
   sodipodi:docname="fig_bug2_own.svg">
  <sodipodi:namedview
     id="base"
     pagecolor="#ffffff"
     bordercolor="#666666"
     borderopacity="1.0"
     inkscape:pageopacity="0.0"
     inkscape:pageshadow="2"
     inkscape:zoom="1.4719322"
     inkscape:cx="276.00497"
     inkscape:cy="131.94688"
     inkscape:document-units="px"
     inkscape:current-layer="layer1"
     showgrid="false"
     inkscape:window-width="1280"
     inkscape:window-height="724"
     inkscape:window-x="0"
     inkscape:window-y="24"
     inkscape:window-maximized="1"
     fit-margin-top="0"
     fit-margin-left="0"
     fit-margin-right="0"
     fit-margin-bottom="0">
    <inkscape:grid
       originy="-716.36382px"
       originx="-93.601765px"
       snapvisiblegridlinesonly="true"
       enabled="true"
       visible="true"
       empspacing="5"
       type="xygrid"
       id="grid2989" />
  </sodipodi:namedview>
  <defs
     id="defs4">
    <marker
       style="overflow:visible"
       id="TriangleInM"
       refX="0"
       refY="0"
       orient="auto"
       inkscape:stockid="TriangleInM">
      <path
         inkscape:connector-curvature="0"
         transform="scale(-0.4,-0.4)"
         style="fill-rule:evenodd;stroke:#000000;stroke-width:1pt"
         d="m 5.77,0 -8.65,5 0,-10 8.65,5 z"
         id="path4871" />
    </marker>
    <marker
       style="overflow:visible"
       id="TriangleOutL"
       refX="0"
       refY="0"
       orient="auto"
       inkscape:stockid="TriangleOutL">
      <path
         inkscape:connector-curvature="0"
         transform="scale(0.8,0.8)"
         style="fill-rule:evenodd;stroke:#000000;stroke-width:1pt"
         d="m 5.77,0 -8.65,5 0,-10 8.65,5 z"
         id="path4877" />
    </marker>
    <marker
       inkscape:stockid="Arrow2Mend"
       orient="auto"
       refY="0"
       refX="0"
       id="Arrow2Mend"
       style="overflow:visible">
      <path
         inkscape:connector-curvature="0"
         id="path4762"
         style="fill-rule:evenodd;stroke-width:0.625;stroke-linejoin:round"
         d="M 8.7185878,4.0337352 -2.2072895,0.01601326 8.7185884,-4.0017078 c -1.7454984,2.3720609 -1.7354408,5.6174519 -6e-7,8.035443 z"
         transform="scale(-0.6,-0.6)" />
    </marker>
    <marker
       inkscape:stockid="EmptyTriangleOutL"
       orient="auto"
       refY="0"
       refX="0"
       id="EmptyTriangleOutL"
       style="overflow:visible">
      <path
         inkscape:connector-curvature="0"
         id="path4895"
         d="m 5.77,0 -8.65,5 0,-10 8.65,5 z"
         style="fill:#ffffff;fill-rule:evenodd;stroke:#000000;stroke-width:1pt"
         transform="matrix(0.8,0,0,0.8,-4.8,0)" />
    </marker>
    <marker
       inkscape:stockid="Arrow1Lend"
       orient="auto"
       refY="0"
       refX="0"
       id="Arrow1Lend"
       style="overflow:visible">
      <path
         inkscape:connector-curvature="0"
         id="path4738"
         d="M 0,0 5,-5 -12.5,0 5,5 0,0 z"
         style="fill-rule:evenodd;stroke:#000000;stroke-width:1pt"
         transform="matrix(-0.8,0,0,-0.8,-10,0)" />
    </marker>
    <marker
       inkscape:stockid="Arrow2Mendy"
       orient="auto"
       refY="0"
       refX="0"
       id="Arrow2Mendy"
       style="overflow:visible">
      <path
         inkscape:connector-curvature="0"
         id="path5558"
         style="fill:#008000;fill-rule:evenodd;stroke:#008000;stroke-width:0.625;stroke-linejoin:round"
         d="M 8.7185878,4.0337352 -2.2072895,0.01601326 8.7185884,-4.0017078 c -1.7454984,2.3720609 -1.7354408,5.6174519 -6e-7,8.035443 z"
         transform="scale(-0.6,-0.6)" />
    </marker>
    <marker
       inkscape:stockid="Arrow2Mend"
       orient="auto"
       refY="0"
       refX="0"
       id="Arrow2Mend-9"
       style="overflow:visible">
      <path
         id="path4762-8"
         style="fill-rule:evenodd;stroke-width:0.625;stroke-linejoin:round"
         d="M 8.7185878,4.0337352 -2.2072895,0.01601326 8.7185884,-4.0017078 c -1.7454984,2.3720609 -1.7354408,5.6174519 -6e-7,8.035443 z"
         transform="scale(-0.6,-0.6)"
         inkscape:connector-curvature="0" />
    </marker>
    <marker
       inkscape:stockid="Arrow2Mend"
       orient="auto"
       refY="0"
       refX="0"
       id="Arrow2Mend-93"
       style="overflow:visible">
      <path
         id="path4762-7"
         style="fill-rule:evenodd;stroke-width:0.625;stroke-linejoin:round"
         d="M 8.7185878,4.0337352 -2.2072895,0.01601326 8.7185884,-4.0017078 c -1.7454984,2.3720609 -1.7354408,5.6174519 -6e-7,8.035443 z"
         transform="scale(-0.6,-0.6)"
         inkscape:connector-curvature="0" />
    </marker>
    <marker
       inkscape:stockid="Arrow2Mend"
       orient="auto"
       refY="0"
       refX="0"
       id="Arrow2Mend-0"
       style="overflow:visible">
      <path
         id="path4762-0"
         style="fill-rule:evenodd;stroke-width:0.625;stroke-linejoin:round"
         d="M 8.7185878,4.0337352 -2.2072895,0.01601326 8.7185884,-4.0017078 c -1.7454984,2.3720609 -1.7354408,5.6174519 -6e-7,8.035443 z"
         transform="scale(-0.6,-0.6)"
         inkscape:connector-curvature="0" />
    </marker>
    <marker
       inkscape:stockid="Arrow2MendJ"
       orient="auto"
       refY="0"
       refX="0"
       id="Arrow2MendJ"
       style="overflow:visible">
      <path
         inkscape:connector-curvature="0"
         id="path7833"
         style="fill:#008000;fill-rule:evenodd;stroke:#008000;stroke-width:0.625;stroke-linejoin:round"
         d="M 8.7185878,4.0337352 -2.2072895,0.01601326 8.7185884,-4.0017078 c -1.7454984,2.3720609 -1.7354408,5.6174519 -6e-7,8.035443 z"
         transform="scale(-0.6,-0.6)" />
    </marker>
    <marker
       inkscape:stockid="Arrow2MendyX"
       orient="auto"
       refY="0"
       refX="0"
       id="Arrow2MendyX"
       style="overflow:visible">
      <path
         inkscape:connector-curvature="0"
         id="path7920"
         style="fill:#008000;fill-rule:evenodd;stroke:#008000;stroke-width:0.625;stroke-linejoin:round"
         d="M 8.7185878,4.0337352 -2.2072895,0.01601326 8.7185884,-4.0017078 c -1.7454984,2.3720609 -1.7354408,5.6174519 -6e-7,8.035443 z"
         transform="scale(-0.6,-0.6)" />
    </marker>
    <marker
       inkscape:stockid="Arrow2Mendg"
       orient="auto"
       refY="0"
       refX="0"
       id="Arrow2Mendg"
       style="overflow:visible">
      <path
         inkscape:connector-curvature="0"
         id="path8011"
         style="fill:#008000;fill-rule:evenodd;stroke:#008000;stroke-width:0.625;stroke-linejoin:round"
         d="M 8.7185878,4.0337352 -2.2072895,0.01601326 8.7185884,-4.0017078 c -1.7454984,2.3720609 -1.7354408,5.6174519 -6e-7,8.035443 z"
         transform="scale(-0.6,-0.6)" />
    </marker>
    <marker
       inkscape:stockid="Arrow2Mend7"
       orient="auto"
       refY="0"
       refX="0"
       id="Arrow2Mend7"
       style="overflow:visible">
      <path
         inkscape:connector-curvature="0"
         id="path8106"
         style="fill:#008000;fill-rule:evenodd;stroke:#008000;stroke-width:0.625;stroke-linejoin:round"
         d="M 8.7185878,4.0337352 -2.2072895,0.01601326 8.7185884,-4.0017078 c -1.7454984,2.3720609 -1.7354408,5.6174519 -6e-7,8.035443 z"
         transform="scale(-0.6,-0.6)" />
    </marker>
    <marker
       inkscape:stockid="Arrow2MendT"
       orient="auto"
       refY="0"
       refX="0"
       id="Arrow2MendT"
       style="overflow:visible">
      <path
         inkscape:connector-curvature="0"
         id="path8205"
         style="fill:#008000;fill-rule:evenodd;stroke:#008000;stroke-width:0.625;stroke-linejoin:round"
         d="M 8.7185878,4.0337352 -2.2072895,0.01601326 8.7185884,-4.0017078 c -1.7454984,2.3720609 -1.7354408,5.6174519 -6e-7,8.035443 z"
         transform="scale(-0.6,-0.6)" />
    </marker>
  </defs>
  <metadata
     id="metadata7">
    <rdf:RDF>
      <cc:Work
         rdf:about="">
        <dc:format>image/svg+xml</dc:format>
        <dc:type
           rdf:resource="http://purl.org/dc/dcmitype/StillImage" />
        <dc:title></dc:title>
      </cc:Work>
    </rdf:RDF>
  </metadata>
  <g
     transform="translate(-93.601765,-59.634384)"
     inkscape:label="Ebene 1"
     inkscape:groupmode="layer"
     id="layer1">
    <path
       style="fill:none;stroke:#000000;stroke-width:1px;stroke-linecap:butt;stroke-linejoin:miter;stroke-opacity:1"
       d="M 97.321057,313.3304 555.03416,77.630968"
       id="path2985"
       inkscape:connector-curvature="0" />
    <path
       style="fill:#d2691e;fill-opacity:1;stroke:#000000;stroke-width:1px;stroke-linecap:butt;stroke-linejoin:miter;stroke-opacity:1"
       d="m 147.50223,194.72036 c 11.29019,-20.96749 32.26765,-42.0522 32.26765,-42.0522 35.47344,-30.33723 40.82171,17.24189 49.92486,35.19791 4.30103,9.13968 4.30904,22.0132 27.42704,30.61525 59.6767,28.49428 91.41208,10.01464 103.90232,37.87746 -4.65478,21.83649 -43.01236,14.23708 -82.20595,20.81818 -25.03434,4.20358 -44.48739,25.72625 -68.17138,21.01561 -74.19266,-28.49428 -78.19812,-77.66607 -63.14454,-103.47221 z"
       id="path2987"
       inkscape:connector-curvature="0"
       sodipodi:nodetypes="cccccscc" />
    <path
       sodipodi:type="arc"
       style="fill:#000000;fill-opacity:1;stroke:none"
       id="path3014"
       sodipodi:cx="91.376488"
       sodipodi:cy="319.65182"
       sodipodi:rx="5.7747226"
       sodipodi:ry="5.7747226"
       d="m 97.15121,319.65182 c 0,3.1893 -2.585431,5.77473 -5.774722,5.77473 -3.189291,0 -5.774723,-2.58543 -5.774723,-5.77473 0,-3.18929 2.585432,-5.77472 5.774723,-5.77472 3.189291,0 5.774722,2.58543 5.774722,5.77472 z"
       transform="matrix(0.64705883,0,0,0.76470589,38.212387,68.57095)" />
    <path
       sodipodi:type="arc"
       style="fill:#000000;fill-opacity:1;stroke:none"
       id="path3014-8"
       sodipodi:cx="91.376488"
       sodipodi:cy="319.65182"
       sodipodi:rx="5.7747226"
       sodipodi:ry="5.7747226"
       d="m 97.15121,319.65182 c 0,3.1893 -2.585431,5.77473 -5.774722,5.77473 -3.189291,0 -5.774723,-2.58543 -5.774723,-5.77473 0,-3.18929 2.585432,-5.77472 5.774723,-5.77472 3.189291,0 5.774722,2.58543 5.774722,5.77472 z"
       transform="matrix(0.64705883,0,0,0.76470589,494.56801,-166.30709)" />
    <path
       style="fill:none;stroke:#008000;stroke-width:1;stroke-linecap:butt;stroke-linejoin:miter;stroke-miterlimit:4;stroke-opacity:1;stroke-dasharray:2, 4;stroke-dashoffset:0;marker-mid:url(#Arrow2MendJ)"
       d="m 98.000289,309.19332 c 0,0 24.229391,-13.8499 38.863801,-22.11888 8.48428,-4.79393 20.85119,-6.60034 17.82264,-13.91063"
       id="path3831"
       inkscape:connector-curvature="0"
       sodipodi:nodetypes="csc" />
    <path
       style="fill:none;stroke:#008000;stroke-width:1.07505465;stroke-linecap:butt;stroke-linejoin:miter;stroke-miterlimit:4;stroke-opacity:1;stroke-dasharray:2.15010929, 4.30021858;stroke-dashoffset:0;marker-mid:url(#Arrow2MendyX)"
       d="m 153.27077,273.62137 c -14.8922,-13.45102 -26.13482,-29.11045 -25.61837,-51.83423 -1.03289,-29.43761 8.19108,-41.8324 25.75036,-64.03973 14.46058,-14.46059 25.82247,-33.05276 48.0298,-33.56921 16.52637,0.51645 29.69265,12.25155 31.75845,22.0641 12.23296,28.03384 4.35715,30.1093 21.95504,48.80174 19.93486,19.07421 27.24897,12.15995 33.04739,16.55216 0,0 29.18429,-13.51622 33.02744,-17.83976 0,0 32.47763,-15.87339 72.9087,-35.94683 25.23345,-12.52805 53.56488,-26.69207 79.03245,-39.65429 41.5774,-21.161619 75.52187,-39.120101 75.89226,-41.52764"
       id="path3835-7"
       inkscape:connector-curvature="0"
       sodipodi:nodetypes="ccccccccssc" />
    <path
       style="fill:#d2691e;fill-opacity:1;stroke:#000000;stroke-width:0.85249072px;stroke-linecap:butt;stroke-linejoin:miter;stroke-opacity:1"
       d="m 467.86305,226.88664 c -2.43991,-12.67309 -3.52973,-26.8372 -27.47368,-28.59986 -24.47965,-7.05237 -47.83438,13.15214 -51.53679,-9.35122 0.83183,-16.47609 39.43032,-16.32815 76.4418,-28.45423 23.64052,-7.74536 55.9049,-30.19822 69.55005,-25.20738 37.47925,13.84488 -26.89167,28.56106 -34.38819,51.29206 -21.95091,66.55964 -23.75487,61.4025 -32.59319,40.32063 z"
       id="path2987-4"
       inkscape:connector-curvature="0"
       sodipodi:nodetypes="cccscsc" />
    <text
       sodipodi:linespacing="125%"
       id="text7802"
       y="335.77182"
       x="93.745331"
       style="font-size:16px;font-style:normal;font-weight:normal;line-height:125%;letter-spacing:0px;word-spacing:0px;fill:#000000;fill-opacity:1;stroke:none;font-family:Sans"
       xml:space="preserve"><tspan
         y="335.77182"
         x="93.745331"
         id="tspan7804"
         sodipodi:role="line">Start</tspan></text>
    <text
       sodipodi:linespacing="125%"
       id="text7806"
       y="71.790634"
       x="558.06049"
       style="font-size:16px;font-style:normal;font-weight:normal;line-height:125%;letter-spacing:0px;word-spacing:0px;fill:#000000;fill-opacity:1;stroke:none;font-family:Sans"
       xml:space="preserve"><tspan
         y="71.790634"
         x="558.06049"
         id="tspan7808"
         sodipodi:role="line">Goal</tspan></text>
  </g>
</svg>
